<svg width="33" height="39" viewBox="0 0 33 39" fill="none" xmlns="http://www.w3.org/2000/svg">
<path d="M23.5046 38.4615V32.9497C23.5676 32.0339 23.4595 31.1133 23.1874 30.2491C22.9153 29.3848 22.4854 28.5967 21.9265 27.9372C27.1982 27.265 32.7385 24.9796 32.7385 14.4936C32.738 11.8123 31.8364 9.23377 30.2201 7.29176C30.9855 4.94587 30.9314 2.35289 30.069 0.0514563C30.069 0.0514563 28.088 -0.62072 23.5046 2.8938C19.6567 1.70083 15.6005 1.70083 11.7525 2.8938C7.16917 -0.62072 5.1881 0.0514563 5.1881 0.0514563C4.32579 2.35289 4.27167 4.94587 5.037 7.29176C3.4087 9.24817 2.50613 11.85 2.51868 14.5513C2.51868 24.9604 8.05897 27.2458 13.3306 27.9948C12.7783 28.6477 12.3523 29.4263 12.0804 30.28C11.8085 31.1337 11.6968 32.0433 11.7525 32.9497V38.4615" fill="#00C2FF"/>
<path d="M11.7521 34.6204C6.71551 36.489 2.51831 34.6204 0 28.8589L11.7521 34.6204Z" fill="#00C2FF"/>
</svg>
