<svg width="52" height="50" viewBox="0 0 52 50" fill="none" xmlns="http://www.w3.org/2000/svg">
<path d="M25.5289 12.1726C18.2783 12.1726 12.4268 17.9015 12.4268 25C12.4268 32.0985 18.2783 37.8274 25.5289 37.8274C32.7794 37.8274 38.6309 32.0985 38.6309 25C38.6309 17.9015 32.7794 12.1726 25.5289 12.1726ZM25.5289 33.3369C20.84 33.3369 17.0135 29.5906 17.0135 25C17.0135 20.4094 20.84 16.6631 25.5289 16.6631C30.2177 16.6631 34.0442 20.4094 34.0442 25C34.0442 29.5906 30.2177 33.3369 25.5289 33.3369ZM39.1675 8.65771C37.4747 8.65771 36.1076 9.99611 36.1076 11.6535C36.1076 13.3109 37.4747 14.6493 39.1675 14.6493C40.8604 14.6493 42.2274 13.3171 42.2274 11.6535C42.2279 11.2599 42.1491 10.8702 41.9955 10.5065C41.8419 10.1428 41.6166 9.81233 41.3323 9.53405C41.0481 9.25577 40.7106 9.03512 40.3391 8.88474C39.9676 8.73437 39.5695 8.65721 39.1675 8.65771ZM51.0686 25C51.0686 21.5477 51.1005 18.1266 50.9025 14.6805C50.7045 10.6778 49.7718 7.12542 46.7822 4.19845C43.7861 1.26521 40.1641 0.358351 36.0756 0.16447C32.5494 -0.0294109 29.0551 0.00186028 25.5352 0.00186028C22.009 0.00186028 18.5147 -0.0294109 14.9948 0.16447C10.9064 0.358351 7.27798 1.27147 4.28833 4.19845C1.2923 7.13168 0.366023 10.6778 0.167991 14.6805C-0.0300406 18.1329 0.00190011 21.5539 0.00190011 25C0.00190011 28.4461 -0.0300406 31.8734 0.167991 35.3195C0.366023 39.3222 1.29869 42.8746 4.28833 45.8016C7.28436 48.7348 10.9064 49.6416 14.9948 49.8355C18.5211 50.0294 22.0154 49.9981 25.5352 49.9981C29.0615 49.9981 32.5558 50.0294 36.0756 49.8355C40.1641 49.6416 43.7925 48.7285 46.7822 45.8016C49.7782 42.8683 50.7045 39.3222 50.9025 35.3195C51.1069 31.8734 51.0686 28.4523 51.0686 25ZM45.447 39.7475C44.9807 40.8857 44.4185 41.7363 43.5178 42.6119C42.6171 43.4937 41.7547 44.0441 40.5921 44.5007C37.2319 45.8078 29.2531 45.5139 25.5289 45.5139C21.8046 45.5139 13.8194 45.8078 10.4593 44.5069C9.29663 44.0504 8.42784 43.5 7.5335 42.6182C6.63278 41.7363 6.07062 40.892 5.60429 39.7537C4.27556 36.4577 4.5758 28.6462 4.5758 25C4.5758 21.3538 4.27556 13.536 5.60429 10.2463C6.07062 9.10801 6.63278 8.25744 7.5335 7.38185C8.43423 6.50626 9.29663 5.94963 10.4593 5.49307C13.8194 4.19219 21.8046 4.48614 25.5289 4.48614C29.2531 4.48614 37.2383 4.19219 40.5984 5.49307C41.7611 5.94963 42.6299 6.5 43.5242 7.38185C44.4249 8.26369 44.9871 9.10801 45.4534 10.2463C46.7822 13.536 46.4819 21.3538 46.4819 25C46.4819 28.6462 46.7821 36.4577 45.447 39.7475Z" fill="#00C2FF"/>
</svg>
