<svg width="44" height="43" viewBox="0 0 44 43" fill="none" xmlns="http://www.w3.org/2000/svg">
<path d="M38.8929 42.3077H35.2845C34.1384 42.3077 33.0392 41.8832 32.2288 41.1275C31.4183 40.3719 30.963 39.347 30.963 38.2784V27.4597C30.9823 27.0354 30.8448 26.6178 30.5734 26.2767C30.302 25.9357 29.9133 25.6919 29.4721 25.5861C29.2155 25.5496 28.9535 25.565 28.7038 25.631C28.454 25.697 28.2224 25.8122 28.0245 25.9689C27.8208 26.13 27.6572 26.3307 27.5453 26.5569C27.4333 26.7831 27.3756 27.0293 27.3763 27.2784V38.2784C27.3763 39.347 26.921 40.3719 26.1105 41.1275C25.3001 41.8832 24.2009 42.3077 23.0548 42.3077H19.4464C18.3003 42.3077 17.2011 41.8832 16.3907 41.1275C15.5803 40.3719 15.125 39.347 15.125 38.2784V27.2784C15.125 23.8053 16.6047 20.4745 19.2386 18.0187C21.8725 15.5628 25.4448 14.1832 29.1696 14.1832C32.8945 14.1832 36.4668 15.5628 39.1007 18.0187C41.7346 20.4745 43.2143 23.8053 43.2143 27.2784V38.2784C43.2143 39.347 42.759 40.3719 41.9486 41.1275C41.1381 41.8832 40.039 42.3077 38.8929 42.3077ZM29.1696 21.5366C29.5078 21.5167 29.847 21.5167 30.1852 21.5366C31.6358 21.7968 32.9419 22.5249 33.8743 23.5932C34.8067 24.6616 35.306 26.0019 35.2845 27.3791V38.2784H38.8929V27.2784C38.8929 24.874 37.8685 22.568 36.045 20.8678C34.2215 19.1676 31.7484 18.2125 29.1696 18.2125C26.5909 18.2125 24.1178 19.1676 22.2943 20.8678C20.4708 22.568 19.4464 24.874 19.4464 27.2784V38.2784H23.0548V27.2784C23.0548 25.7625 23.6976 24.3082 24.8432 23.2325C25.9887 22.1569 27.5439 21.5473 29.1696 21.5366ZM8.64286 42.3077H4.32143C3.17532 42.3077 2.07614 41.8832 1.26572 41.1275C0.455295 40.3719 2.98162e-06 39.347 2.98162e-06 38.2784V18.1319C2.98162e-06 17.0632 0.455295 16.0384 1.26572 15.2827C2.07614 14.5271 3.17532 14.1026 4.32143 14.1026H8.64286C9.78897 14.1026 10.8881 14.5271 11.6986 15.2827C12.509 16.0384 12.9643 17.0632 12.9643 18.1319V38.2784C12.9643 39.347 12.509 40.3719 11.6986 41.1275C10.8881 41.8832 9.78897 42.3077 8.64286 42.3077ZM4.32143 18.1319V38.2784H8.64286V18.1319H4.32143ZM6.48215 12.0879C5.2001 12.0879 3.94684 11.7334 2.88086 11.0693C1.81488 10.4052 0.984045 9.46127 0.493427 8.35688C0.00280862 7.25249 -0.125559 6.03725 0.124555 4.86484C0.37467 3.69243 0.992035 2.6155 1.89858 1.77024C2.80512 0.924974 3.96013 0.349343 5.21754 0.116136C6.47496 -0.117072 7.7783 0.00261876 8.96275 0.460071C10.1472 0.917524 11.1596 1.69219 11.8718 2.68612C12.5841 3.68004 12.9643 4.84858 12.9643 6.04396C12.9643 7.64691 12.2814 9.18422 11.0657 10.3177C9.85007 11.4511 8.20132 12.0879 6.48215 12.0879ZM6.48215 4.02931C6.0548 4.02931 5.63704 4.14746 5.28172 4.36884C4.92639 4.59021 4.64945 4.90485 4.48591 5.27298C4.32237 5.64111 4.27958 6.04619 4.36295 6.437C4.44632 6.8278 4.65211 7.18678 4.95429 7.46853C5.25647 7.75029 5.64147 7.94216 6.06061 8.0199C6.47975 8.09764 6.9142 8.05774 7.30901 7.90525C7.70383 7.75277 8.04129 7.49455 8.27871 7.16324C8.51614 6.83193 8.64286 6.44242 8.64286 6.04396C8.64286 5.50964 8.41521 4.9972 8.01 4.61938C7.60479 4.24156 7.0552 4.02931 6.48215 4.02931Z" fill="#00C2FF"/>
</svg>
