<svg width="50" height="40" viewBox="0 0 50 40" fill="none" xmlns="http://www.w3.org/2000/svg">
<path d="M44.705 10.071V11.3833C44.705 24.5988 34.4299 39.7435 15.6279 39.7435C10.0774 39.7552 4.64471 38.1813 0 35.2159C0.806649 35.3228 1.62032 35.371 2.4343 35.3602C7.03527 35.3726 11.5069 33.875 15.1303 31.1082C12.9928 31.0774 10.9196 30.3901 9.20536 29.1437C7.49112 27.8974 6.22306 26.1556 5.5814 24.1658C6.2181 24.2975 6.86723 24.3635 7.51808 24.3626C8.42693 24.3628 9.33166 24.2436 10.2079 24.0083C7.89275 23.5579 5.80993 22.3365 4.31583 20.553C2.82174 18.7695 2.00924 16.5347 2.01737 14.2312V14.0999C3.43384 14.872 5.02187 15.2955 6.64389 15.3335C4.48475 13.9471 2.94964 11.8085 2.35222 9.35469C1.75479 6.90086 2.14014 4.31704 3.42954 2.13116C5.99867 5.21455 9.20405 7.73583 12.8373 9.53109C16.4705 11.3264 20.4503 12.3554 24.5178 12.5513C24.3165 11.8065 24.2214 11.038 24.2354 10.2678C24.1597 8.23223 24.7287 6.22331 25.865 4.51463C27.0014 2.80594 28.6498 1.48051 30.5858 0.718822C32.5218 -0.042869 34.6514 -0.20381 36.6845 0.257915C38.7176 0.719639 40.5555 1.78159 41.9479 3.29917C44.2367 2.84846 46.4322 2.02788 48.4439 0.871294C47.681 3.22222 46.0581 5.21693 43.8846 6.47509C45.9149 6.2021 47.8943 5.64519 49.7619 4.82151C48.4084 6.84995 46.6962 8.62743 44.705 10.071Z" fill="#00C2FF"/>
</svg>
